<svg width="153" height="19" viewBox="0 0 153 19" fill="none" xmlns="http://www.w3.org/2000/svg">
<path d="M0.632 18V0.959999H12.2V4.416H4.568V8.088H10.856V11.28H4.568V18H0.632ZM14.1761 18V0.959999H21.8561C22.6561 0.959999 23.3921 1.128 24.0641 1.464C24.7521 1.784 25.3441 2.224 25.8401 2.784C26.3361 3.328 26.7201 3.944 26.9921 4.632C27.2801 5.32 27.4241 6.016 27.4241 6.72C27.4241 7.424 27.3121 8.096 27.0881 8.736C26.8641 9.36 26.5441 9.928 26.1281 10.44C25.7121 10.936 25.2161 11.344 24.6401 11.664L28.3841 18H24.0401L20.7761 12.504H18.1121V18H14.1761ZM18.1121 9.072H21.7121C22.0321 9.072 22.3121 8.976 22.5521 8.784C22.8081 8.576 23.0161 8.296 23.1761 7.944C23.3361 7.592 23.4161 7.184 23.4161 6.72C23.4161 6.256 23.3201 5.856 23.1281 5.52C22.9521 5.168 22.7281 4.896 22.4561 4.704C22.1841 4.512 21.8961 4.416 21.5921 4.416H18.1121V9.072ZM37.3604 18.144C36.0004 18.144 34.8404 17.92 33.8804 17.472C32.9204 17.008 32.1364 16.384 31.5284 15.6C30.9364 14.8 30.4964 13.896 30.2084 12.888C29.9364 11.864 29.8004 10.792 29.8004 9.672V0.959999H33.7364V9.672C33.7364 10.312 33.8004 10.936 33.9284 11.544C34.0564 12.136 34.2644 12.664 34.5524 13.128C34.8404 13.592 35.2084 13.96 35.6564 14.232C36.1204 14.504 36.6884 14.64 37.3604 14.64C38.0484 14.64 38.6244 14.504 39.0884 14.232C39.5524 13.944 39.9204 13.568 40.1924 13.104C40.4644 12.624 40.6644 12.088 40.7924 11.496C40.9204 10.904 40.9844 10.296 40.9844 9.672V0.959999H44.9204V9.672C44.9204 10.856 44.7684 11.96 44.4644 12.984C44.1764 14.008 43.7284 14.912 43.1204 15.696C42.5124 16.464 41.7284 17.064 40.7684 17.496C39.8244 17.928 38.6884 18.144 37.3604 18.144ZM47.8501 18V0.959999H51.7861V18H47.8501ZM67.9094 4.416H62.7254V18H58.7894V4.416H53.5814V0.959999H67.9094V4.416Z" fill="#EB007D"/>
<path d="M70.3117 18V0.959999H81.3997V2.064H71.5357V8.832H79.9117V9.888H71.5357V18H70.3117ZM84.4417 18V0.959999H85.6657V18H84.4417ZM91.241 3.24V18H90.017V0.959999H91.025L102.905 15.96V0.959999H104.129V18H102.929L91.241 3.24ZM108.46 18V0.959999H114.124C115.932 0.959999 117.428 1.344 118.612 2.112C119.812 2.864 120.708 3.888 121.3 5.184C121.908 6.464 122.212 7.888 122.212 9.456C122.212 11.184 121.884 12.688 121.228 13.968C120.572 15.248 119.636 16.24 118.42 16.944C117.204 17.648 115.772 18 114.124 18H108.46ZM120.988 9.456C120.988 8.032 120.716 6.76 120.172 5.64C119.644 4.52 118.868 3.648 117.844 3.024C116.836 2.384 115.596 2.064 114.124 2.064H109.684V16.896H114.124C115.612 16.896 116.868 16.568 117.892 15.912C118.916 15.256 119.684 14.368 120.196 13.248C120.724 12.112 120.988 10.848 120.988 9.456ZM136.801 16.896V18H125.449V0.959999H136.585V2.064H126.673V8.76H135.337V9.816H126.673V16.896H136.801ZM140.024 18V0.959999H147.104C147.84 0.959999 148.504 1.112 149.096 1.416C149.704 1.72 150.224 2.128 150.656 2.64C151.104 3.136 151.448 3.696 151.688 4.32C151.944 4.944 152.072 5.584 152.072 6.24C152.072 7.088 151.904 7.88 151.568 8.616C151.232 9.352 150.76 9.968 150.152 10.464C149.56 10.96 148.864 11.264 148.064 11.376L152.312 18H150.896L146.768 11.568H141.248V18H140.024ZM141.248 10.44H147.224C147.96 10.44 148.6 10.24 149.144 9.84C149.688 9.44 150.104 8.92 150.392 8.28C150.696 7.64 150.848 6.96 150.848 6.24C150.848 5.504 150.672 4.824 150.32 4.2C149.984 3.56 149.528 3.048 148.952 2.664C148.392 2.264 147.76 2.064 147.056 2.064H141.248V10.44Z" fill="white"/>
</svg>
